:version 1.10
:name ASF
:units
  mass 1
  length 1
  angle deg
:documentation
  ASF file generated by Kaydara
:root
  axis xyz
  order  tx ty tz rx ry rz
  position 0 0 0
  orientation 0 0 0
:bonedata
  begin
    id 1
    name RightUpLegDummy
    direction -0.718183 -0.695806 0.00816078
    length 4.904
    axis 0 0 0 xyz
  end
  begin
    id 2
    name RightUpLeg
    direction 3.53989e-006 -0.995788 0.0916897
    length 17.4976
    axis -3.49089 -0.000906621 0.000287158 xyz
    dof rx ry rz
  end
  begin
    id 3
    name RightLeg
    direction 0.00371093 -0.995096 -0.0988418
    length 16.5821
    axis 3.68512 0.0193738 -0.131023 xyz
    dof rx ry rz
  end
  begin
    id 4
    name RightFoot
    direction 0.000791514 -0.46099 0.887405
    length 3.77069
    axis 4.84075e-005 -0.120479 -0.188788 xyz
    dof rx ry rz
  end
  begin
    id 5
    name RightToes
    direction 0.00124746 -0.014064 0.9999
    length 3.85082
    axis 0.00048216 0.542163 -0.142577 xyz
    dof rx ry rz
  end
  begin
    id 6
    name SpineDummy
    direction 8.36599e-015 1 5.97571e-016
    length 4.6813
    axis 0 0 0 xyz
  end
  begin
    id 7
    name Spine
    direction -4.63632e-008 0.999988 0.00495137
    length 10.1015
    axis -0.00138897 0.000121419 3.25764e-006 xyz
    dof rx ry rz
  end
  begin
    id 8
    name Spine1
    direction 0 0 0
    length 0
    axis -0.00138896 0.000121452 2.39764e-006 xyz
    dof rx ry rz
  end
  begin
    id 9
    name HEadDummy
    direction -3.91456e-008 0.999999 0.00127422
    length 3.43865
    axis -0.00138896 0.000121452 2.39764e-006 xyz
  end
  begin
    id 10
    name HEad
    direction -0.0222688 0.980941 0.193023
    length 5.12695
    axis -0.00138895 0.000121452 2.39764e-006 xyz
    dof rx ry rz
  end
  begin
    id 11
    name LeftShoulder1Dummy
    direction 0.998891 -0.0402508 -0.0244456
    length 3.5433
    axis -0.00138896 0.000121452 2.39764e-006 xyz
  end
  begin
    id 12
    name LeftShoulder1
    direction 0.99951 -0.000327743 0.0313091
    length 4.05031
    axis -0.00138896 0.000121452 2.39764e-006 xyz
    dof rx ry rz
  end
  begin
    id 13
    name LeftArm
    direction 0.998561 -0.00100054 -0.0536182
    length 10.3537
    axis -23.1894 0.134784 0.96751 xyz
    dof rx ry rz
  end
  begin
    id 14
    name LeftForeArm
    direction 0.998903 0.00866434 0.046012
    length 8.70632
    axis -9.91835 -0.06569 -0.177792 xyz
    dof rx ry rz
  end
  begin
    id 15
    name LeftHand
    direction 0.992938 -0.0411636 0.11126
    length 5.32135
    axis -0.00960227 -0.00340091 0.185174 xyz
    dof rx ry rz
  end
  begin
    id 16
    name RightShoulderDummy
    direction -0.998891 -0.0402509 -0.0244414
    length 3.5433
    axis -0.00138896 0.000121452 2.39764e-006 xyz
  end
  begin
    id 17
    name RightShoulder
    direction -0.99951 -0.000327827 0.0313133
    length 4.05031
    axis 0.215806 0.000203644 -0.00680151 xyz
    dof rx ry rz
  end
  begin
    id 18
    name RightArm
    direction -0.998573 -0.000999583 -0.053403
    length 10.3947
    axis -23.2009 -0.134239 -0.9641 xyz
    dof rx ry rz
  end
  begin
    id 19
    name RightForeArm
    direction -0.998898 0.00868026 0.0461306
    length 8.68355
    axis -9.92322 0.0658061 0.178869 xyz
    dof rx ry rz
  end
  begin
    id 20
    name RightHand
    direction -0.992843 -0.0414603 0.112003
    length 5.28593
    axis -0.00960634 0.00330671 -0.185226 xyz
    dof rx ry rz
  end
  begin
    id 21
    name LeftUpLegDummy
    direction 0.718183 -0.695806 0.00816078
    length 4.904
    axis 0 0 0 xyz
  end
  begin
    id 22
    name LeftUpLeg
    direction -6.8115e-006 -0.995793 0.0916336
    length 17.4976
    axis -3.48766 0.00143441 -0.000523914 xyz
    dof rx ry rz
  end
  begin
    id 23
    name LeftLeg
    direction -0.00601357 -0.995091 -0.0987824
    length 16.5821
    axis 3.68177 -0.00654038 -0.00028478 xyz
    dof rx ry rz
  end
  begin
    id 24
    name LeftFoot
    direction -0.00417578 -0.460984 0.887399
    length 3.77069
    axis 1.87232e-006 4.66002e-005 -8.1837e-006 xyz
    dof rx ry rz
  end
  begin
    id 25
    name LeftToes
    direction 0.00818058 -0.00485161 0.999955
    length 3.85048
    axis 1.06246e-005 4.65855e-005 -8.18502e-006 xyz
    dof rx ry rz
  end
:hierarchy
  begin
    root RightUpLegDummy SpineDummy LeftUpLegDummy
    RightUpLegDummy RightUpLeg
    RightUpLeg RightLeg
    RightLeg RightFoot
    RightFoot RightToes
    SpineDummy Spine
    Spine Spine1
    Spine1 HEadDummy LeftShoulder1Dummy RightShoulderDummy
    HEadDummy HEad
    LeftShoulder1Dummy LeftShoulder1
    LeftShoulder1 LeftArm
    LeftArm LeftForeArm
    LeftForeArm LeftHand
    RightShoulderDummy RightShoulder
    RightShoulder RightArm
    RightArm RightForeArm
    RightForeArm RightHand
    LeftUpLegDummy LeftUpLeg
    LeftUpLeg LeftLeg
    LeftLeg LeftFoot
    LeftFoot LeftToes
  end

:SAMPLES-PER-SECOND 30
:FULLY-SPECIFIED
:DEGREES
1
root  -14.4472 40.7423 1.85941 -173.719 -76.4978 173.226
RightUpLeg  3.50495 -4.46234 -8.53142
RightLeg  1.1659 -6.4304 -1.56172
RightFoot  -2.03949 -0.888786 10.7225
RightToes  -3.13006e-008 1.75238e-005 3.56266e-009
Spine  2.74738 1.65055 -2.12364
Spine1  4.35689 1.42108 1.47108
HEad  -14.6346 1.3231 2.27903
LeftShoulder1  1.4635 -1.92577 -20.5196
LeftArm  -24.6338 -5.87956 -51.8817
LeftForeArm  131.1 -80.7922 -105.028
LeftHand  -0.838172 -0.967791 15.4957
RightShoulder  2.34199 4.12214 24.6281
RightArm  -3.80096 -22.9749 45.5598
RightForeArm  81.7724 79.2955 56.382
RightHand  -3.12238 8.78738 -25.4815
LeftUpLeg  -1.06059 0.766495 -0.44126
LeftLeg  3.2715 20.4224 -0.863424
LeftFoot  -0.729888 -0.0760104 0.797465
LeftToes  4.78512e-008 1.47396e-008 1.32451e-009
2
root  -14.4982 40.7646 1.76825 -173.539 -77.4555 173.24
RightUpLeg  4.05687 -4.45743 -8.30557
RightLeg  0.334255 -7.59361 -1.29803
RightFoot  -1.75628 -0.904973 10.6229
RightToes  -3.13006e-008 1.75238e-005 3.56266e-009
Spine  1.88501 1.19892 -3.52429
Spine1  4.88549 0.618927 3.14115
HEad  -14.7332 1.00853 3.25154
LeftShoulder1  1.44853 -2.04101 -19.6422
LeftArm  -27.0227 -10.1295 -49.7242
LeftForeArm  124.854 -80.0828 -109.347
LeftHand  -0.796494 -2.33047 12.1332
RightShoulder  2.41071 4.34949 24.6079
RightArm  -4.52858 -23.0648 44.7924
RightForeArm  84.2291 79.76 62.5374
RightHand  -2.94163 9.20217 -23.4198
LeftUpLeg  -1.0576 0.611644 -0.317628
LeftLeg  2.87346 19.5796 -0.815019
LeftFoot  -0.508232 -0.065422 0.650346
LeftToes  4.78512e-008 1.47396e-008 1.32451e-009
3
root  -14.5428 40.7876 1.67695 -174.036 -78.0784 173.838
RightUpLeg  4.61677 -4.29798 -7.93641
RightLeg  -0.527415 -8.48953 -1.07794
RightFoot  -1.35993 -0.910262 10.2909
RightToes  -3.13006e-008 1.75238e-005 3.56266e-009
Spine  0.85993 0.863776 -5.08498
Spine1  5.75872 -0.142938 5.11637
HEad  -14.6568 1.04085 3.85572
LeftShoulder1  1.44203 -2.31192 -18.2011
LeftArm  -29.6466 -14.4534 -46.8448
LeftForeArm  117.069 -79.6939 -109.418
LeftHand  -0.76641 -2.05698 12.116
RightShoulder  2.49624 4.63928 24.5584
RightArm  -5.21507 -21.4581 42.8946
RightForeArm  87.2541 80.0985 69.2999
RightHand  -2.88223 9.47772 -22.5578
LeftUpLeg  -0.895133 0.714128 -0.0164934
LeftLeg  2.42321 18.8558 -0.902888
LeftFoot  -0.304574 -0.0580042 0.556073
LeftToes  4.78512e-008 1.47396e-008 1.32451e-009
4
root  -14.6135 40.8084 1.5883 -174.315 -78.3328 173.969
RightUpLeg  5.2549 -4.23011 -7.76081
RightLeg  -1.11688 -8.91092 -0.945023
RightFoot  -1.17526 -0.897593 9.97604
RightToes  -3.13006e-008 1.75238e-005 3.56266e-009
Spine  -0.272731 0.857992 -7.42424
Spine1  7.03805 -0.819708 8.19574
HEad  -14.6006 0.931341 4.11038
LeftShoulder1  1.41859 -2.43016 -17.2441
LeftArm  -33.1829 -19.0105 -44.1433
LeftForeArm  110.999 -80.028 -103
LeftHand  -0.638154 -1.71706 10.5998
RightShoulder  2.36251 4.46607 23.4992
RightArm  -6.80471 -18.4361 41.4028
RightForeArm  92.6185 80.3525 78.8039
RightHand  -2.81535 9.40129 -22.1657
LeftUpLeg  -0.275148 0.874842 0.180055
LeftLeg  1.71635 18.4327 -1.15007
LeftFoot  -0.0867908 -0.0509331 0.477728
LeftToes  4.78512e-008 1.47396e-008 1.32451e-009
5
root  -14.6687 40.8189 1.53819 -174.764 -78.1864 174.151
RightUpLeg  5.69342 -4.10816 -7.64818
RightLeg  -1.32066 -8.94331 -0.978238
RightFoot  -1.0903 -0.91192 10.0589
RightToes  -3.13006e-008 1.75238e-005 3.56266e-009
Spine  -1.25682 0.726031 -8.29141
Spine1  8.14407 -1.17918 9.07572
HEad  -13.825 1.33267 4.91235
LeftShoulder1  1.31966 -2.39333 -15.5711
LeftArm  -36.7507 -23.055 -41.1271
LeftForeArm  99.3527 -80.1896 -92.9788
LeftHand  -0.582686 -1.66931 9.76721
RightShoulder  2.41444 4.70358 23.2586
RightArm  -9.25561 -14.6279 39.5493
RightForeArm  99.3143 80.2779 91.2158
RightHand  -2.67483 9.07005 -21.5574
LeftUpLeg  0.422934 0.865007 0.191061
LeftLeg  1.10741 18.5661 -1.17248
LeftFoot  0.11056 -0.0466292 0.459898
LeftToes  4.78512e-008 1.47396e-008 1.32451e-009
6
root  -14.7349 40.8284 1.51455 -175.959 -77.4638 175.079
RightUpLeg  5.90354 -3.89613 -7.45711
RightLeg  -1.30872 -8.41688 -1.09793
RightFoot  -1.08032 -0.921104 10.1527
RightToes  -3.13006e-008 1.75238e-005 3.56266e-009
Spine  -2.0545 0.81958 -8.8965
Spine1  8.74361 -1.30383 9.97456
HEad  -12.4154 1.85914 5.21383
LeftShoulder1  1.25123 -2.37306 -14.4001
LeftArm  -39.5843 -25.7147 -38.4466
LeftForeArm  87.8656 -80.045 -83.4959
LeftHand  -0.570102 -1.97738 9.1396
RightShoulder  2.47134 5.04146 22.7252
RightArm  -12.6418 -9.98452 38.3311
RightForeArm  102.62 79.9556 98.9815
RightHand  -2.52247 8.73288 -20.8499
LeftUpLeg  1.17437 0.931125 0.273953
LeftLeg  0.57918 19.2094 -1.14665
LeftFoot  0.191227 -0.0286474 0.272732
LeftToes  4.78512e-008 1.47396e-008 1.32451e-009
7
root  -14.821 40.8252 1.50587 -176.722 -76.5418 175.403
RightUpLeg  6.33874 -3.84735 -7.51621
RightLeg  -1.3033 -7.6407 -1.18133
RightFoot  -1.01099 -0.872058 9.54908
RightToes  -3.13006e-008 1.75238e-005 3.56266e-009
Spine  -2.01211 1.13646 -8.92998
Spine1  8.17539 -0.997457 10.0839
HEad  -10.3812 1.85373 5.32585
LeftShoulder1  1.3195 -2.82916 -13.8869
LeftArm  -41.7119 -27.0342 -36.0162
LeftForeArm  80.8428 -79.831 -76.4572
LeftHand  -0.424813 -1.42622 7.41875
RightShoulder  2.44879 5.1551 22.0449
RightArm  -16.2706 -5.1864 37.7582
RightForeArm  102.983 79.765 101.6
RightHand  -2.55003 8.7459 -21.0314
LeftUpLeg  2.20511 0.866431 0.128774
LeftLeg  -0.0849336 20.2476 -1.08111
LeftFoot  0.241651 0.0137201 -0.149927
LeftToes  4.78512e-008 1.47396e-008 1.32451e-009
8
root  -14.8975 40.8221 1.51194 -177.2 -75.6248 175.645
RightUpLeg  6.41629 -3.88153 -7.63501
RightLeg  -1.12603 -6.6432 -1.25503
RightFoot  -1.12381 -0.875076 9.68006
RightToes  -3.13006e-008 1.75238e-005 3.56266e-009
Spine  -2.30575 1.33828 -8.43886
Spine1  7.95356 -0.698999 9.71188
HEad  -9.29471 2.21904 5.16404
LeftShoulder1  1.27924 -2.76672 -13.4165
LeftArm  -42.9071 -27.8474 -35.5121
LeftForeArm  77.757 -79.6698 -71.8618
LeftHand  -0.431637 -1.31134 7.64645
RightShoulder  2.39031 5.22439 21.086
RightArm  -19.7997 -0.388366 38.0722
RightForeArm  101.725 79.6048 102.762
RightHand  -2.20892 8.24076 -18.9853
LeftUpLeg  2.8478 0.865417 0.0376634
LeftLeg  -0.426934 21.1479 -1.08791
LeftFoot  0.0946858 0.0501361 -0.507593
LeftToes  4.78512e-008 1.47396e-008 1.32451e-009
9
root  -14.9733 40.8192 1.52975 -177.821 -74.8088 176.133
RightUpLeg  6.49547 -3.91807 -7.72387
RightLeg  -1.12828 -5.66893 -1.24847
RightFoot  -1.14559 -0.896163 9.93386
RightToes  -3.13006e-008 1.75238e-005 3.56266e-009
Spine  -2.02231 1.66225 -7.505
Spine1  6.86094 -0.171164 8.95367
HEad  -8.18148 2.00638 5.23345
LeftShoulder1  1.32822 -3.02992 -13.3363
LeftArm  -42.8494 -27.6308 -35.8085
LeftForeArm  75.8886 -79.5092 -67.5721
LeftHand  -0.519677 -2.61575 7.75266
RightShoulder  2.3001 5.19544 20.0731
RightArm  -22.5358 2.80009 38.91
RightForeArm  101.782 79.4006 105.031
RightHand  -2.09556 8.05401 -18.2821
LeftUpLeg  3.15108 1.00922 0.0769218
LeftLeg  -0.304412 21.8026 -1.07129
LeftFoot  -0.19723 0.0687365 -0.685303
LeftToes  4.78512e-008 1.47396e-008 1.32451e-009
10
root  -15.0906 40.8204 1.54956 -177.412 -74.158 175.684
RightUpLeg  6.58628 -4.14813 -8.08797
RightLeg  -1.23484 -4.74882 -1.25072
RightFoot  -1.1332 -0.914605 10.1276
RightToes  -3.13006e-008 1.75238e-005 3.56266e-009
Spine  -2.36521 1.83142 -6.6462
Spine1  6.44713 0.241203 8.06451
HEad  -7.19384 1.41462 5.30968
LeftShoulder1  1.32791 -3.03238 -13.3255
LeftArm  -41.3056 -26.8256 -37.236
LeftForeArm  80.2274 -79.7347 -68.0892
LeftHand  -0.533164 -2.29984 8.25009
RightShoulder  2.27802 5.25675 19.6012
RightArm  -24.2667 5.07793 39.9628
RightForeArm  103.895 79.4796 105.258
RightHand  -2.14653 8.31446 -18.3691
LeftUpLeg  3.55811 0.889104 -0.197121
LeftLeg  -0.617658 22.6002 -1.20913
LeftFoot  -0.290273 0.0650425 -0.579256
LeftToes  4.78512e-008 1.47396e-008 1.32451e-009
11
root  -15.1995 40.8209 1.57398 -177.386 -73.7282 175.711
RightUpLeg  6.72098 -4.29436 -8.29068
RightLeg  -1.52246 -4.21769 -1.19269
RightFoot  -1.07038 -0.939098 10.3411
RightToes  -3.13006e-008 1.75238e-005 3.56266e-009
Spine  -2.95599 1.87127 -5.33711
Spine1  6.44446 0.573712 6.67607
HEad  -6.09234 1.07151 5.55747
LeftShoulder1  1.40471 -3.36238 -13.4756
LeftArm  -38.9456 -24.7467 -38.564
LeftForeArm  87.9287 -80.1682 -72.3936
LeftHand  -0.491273 -2.12814 7.79134
RightShoulder  2.29139 5.36429 19.4223
RightArm  -24.5202 5.64219 40.7546
RightForeArm  108.989 79.5322 107.185
RightHand  -2.05061 8.24861 -17.6555
LeftUpLeg  3.7004 0.828019 -0.330546
LeftLeg  -0.619105 23.1099 -1.21141
LeftFoot  -0.488922 0.0597871 -0.476626
LeftToes  4.78512e-008 1.47396e-008 1.32451e-009
12
root  -15.3054 40.8156 1.5946 -177.588 -73.2734 175.914
RightUpLeg  6.84542 -4.40961 -8.44703
RightLeg  -1.66901 -3.60145 -1.13803
RightFoot  -1.08073 -0.954211 10.5182
RightToes  -3.13006e-008 1.75238e-005 3.56266e-009
Spine  -3.25122 1.93863 -4.13028
Spine1  6.28857 0.88088 5.37472
HEad  -4.39541 0.785333 5.78321
LeftShoulder1  1.52252 -3.65362 -14.3782
LeftArm  -34.7844 -21.8655 -39.2654
LeftForeArm  96.6291 -80.5202 -80.675
LeftHand  -0.511159 -2.71677 7.5389
RightShoulder  2.33109 5.52722 19.3939
RightArm  -22.9724 5.04306 40.9144
RightForeArm  112.835 79.3656 110.42
RightHand  -1.92977 7.82446 -17.1677
LeftUpLeg  3.88757 0.932595 -0.339591
LeftLeg  -0.557106 23.4512 -1.26688
LeftFoot  -0.756318 0.0648227 -0.545288
LeftToes  4.78512e-008 1.47396e-008 1.32451e-009
13
root  -15.3963 40.7983 1.61186 -177.739 -72.89 176.093
RightUpLeg  6.83562 -4.55924 -8.61121
RightLeg  -1.58928 -3.053 -1.04908
RightFoot  -1.26859 -0.95532 10.7122
RightToes  -3.13006e-008 1.75238e-005 3.56266e-009
Spine  -3.44597 1.8325 -3.25509
Spine1  6.13489 0.946092 4.39549
HEad  -2.71074 0.567349 5.88885
LeftShoulder1  1.56691 -3.78199 -14.6354
LeftArm  -29.8018 -17.2596 -40.486
LeftForeArm  116.368 -80.7246 -96.7283
LeftHand  -0.534178 -3.05812 7.58711
RightShoulder  2.37901 5.72095 19.3671
RightArm  -20.0498 3.82796 41.0513
RightForeArm  118.139 79.1867 113.994
RightHand  -1.84712 7.92669 -16.3242
LeftUpLeg  3.79507 1.02955 -0.353294
LeftLeg  -0.0274413 23.7401 -1.13574
LeftFoot  -1.13356 0.0531181 -0.362992
LeftToes  4.78512e-008 1.47396e-008 1.32451e-009
14
root  -15.4417 40.7849 1.63086 -177.61 -72.5795 176.216
RightUpLeg  6.27871 -4.57123 -8.62359
RightLeg  -1.02999 -2.81041 -1.08684
RightFoot  -1.5215 -0.941006 10.8023
RightToes  -3.13006e-008 1.75238e-005 3.56266e-009
Spine  -3.48001 1.53736 -3.09484
Spine1  5.95711 0.700208 4.15122
HEad  -1.22475 0.882748 6.16797
LeftShoulder1  1.53904 -3.60094 -14.8038
LeftArm  -23.4425 -11.3252 -41.6679
LeftForeArm  144.128 -79.7432 -119.445
LeftHand  -0.553995 -4.27358 6.92521
RightShoulder  2.43421 5.76148 19.8886
RightArm  -15.6872 3.15761 39.7553
RightForeArm  125.449 78.8775 118.753
RightHand  -1.57681 7.90791 -14.0417
LeftUpLeg  3.30563 1.1603 -0.296579
LeftLeg  0.655751 23.8509 -1.04244
LeftFoot  -1.43354 0.0407552 -0.177502
LeftToes  4.78512e-008 1.47396e-008 1.32451e-009
15
root  -15.4344 40.7677 1.64614 -177.764 -72.2398 176.559
RightUpLeg  5.60756 -4.33959 -8.43276
RightLeg  -0.271306 -2.73118 -1.26587
RightFoot  -1.80238 -0.915758 10.7977
RightToes  -3.13006e-008 1.75238e-005 3.56266e-009
Spine  -3.26572 1.51937 -3.20699
Spine1  6.03237 0.65651 4.20654
HEad  -0.560741 0.383753 6.30392
LeftShoulder1  1.56144 -3.6328 -15.0458
LeftArm  -15.5903 -6.7358 -43.4426
LeftForeArm  156.352 -78.3248 -130.837
LeftHand  -0.461402 -4.49243 5.70562
RightShoulder  2.43624 5.72392 20.026
RightArm  -11.3727 2.68608 38.7164
RightForeArm  131.621 78.5095 122.962
RightHand  -1.38239 8.1937 -12.1254
LeftUpLeg  2.74812 1.36406 -0.132869
LeftLeg  1.50501 23.9799 -0.848105
LeftFoot  -1.76689 0.0532685 -0.396916
LeftToes  4.78512e-008 1.47396e-008 1.32451e-009
